<svg xmlns="http://www.w3.org/2000/svg"  
     width="1600"
     height="600"
     viewBox="0 0 1600 600">

  <defs>
    <style>
      .brand { fill: #D52B1E; }
      .font  { font-family: Inter, Helvetica, Arial, sans-serif; font-weight: 800; }
      .mesh  {
        stroke: #D52B1E;
        stroke-width: 6; /* increased */
        fill: none;
        stroke-linecap: round;
        stroke-linejoin: round;
      }
    </style>
  </defs>

  <!-- Text -->
  <g transform="translate(160, 0)">
    <text class="brand font" x="0" y="240" font-size="140">Wilhelm</text>
    <text class="brand font" x="0" y="390" font-size="140">Renderer</text>
  </g>

  <!-- Mesh -->
  <g transform="translate(900, 160)">
    <g class="mesh">
      <!-- Top -->
      <path d="M20 30 L90 20 L160 40 L280 25"/>
      <path d="M90 20 L140 110 L160 40"/>
      <path d="M160 40 L220 120 L140 110"/>
      <path d="M160 40 L280 25 L220 120"/>

      <!-- Center -->
      <path d="M140 110 L220 120 L160 200"/>
      <path d="M140 110 L160 200 L80 190"/>
      <path d="M140 110 L80 190 L30 140"/>
      <path d="M140 110 L30 140 L20 30"/>
      <path d="M220 120 L270 140 L240 190"/>
      <path d="M220 120 L240 190 L160 200"/>

      <!-- Bottom -->
      <path d="M30 140 L80 190 L160 200 L240 190"/>
      <path d="M270 140 L240 190"/>

      <!-- Diagonal to triangulate upper-left quad -->
      <path d="M90 20 L30 140"/>
    </g>
  </g>

</svg>
