<svg xmlns="http://www.w3.org/2000/svg" viewBox="0 0 340 200" width="340" height="200">
  <!-- Minimal W from connected dots/vertices -->
  <circle cx="15" cy="50" r="5" fill="#00b43c" />
  <circle cx="45" cy="150" r="5" fill="#00b43c" />
  <circle cx="75" cy="70" r="5" fill="#00b43c" />
  <circle cx="105" cy="150" r="5" fill="#00b43c" />
  <circle cx="135" cy="50" r="5" fill="#00b43c" />
  <polyline points="15,50 45,150 75,70 105,150 135,50" fill="none" stroke="#00b43c" stroke-width="3" />
  <!-- Minimal R from vertices and arc -->
  <circle cx="160" cy="50" r="5" fill="#00b43c" />
  <circle cx="160" cy="150" r="5" fill="#00b43c" />
  <circle cx="160" cy="100" r="5" fill="#00b43c" />
  <circle cx="205" cy="150" r="5" fill="#00b43c" />
  <line x1="160" y1="50" x2="160" y2="150" stroke="#00b43c" stroke-width="3" />
  <path d="M160,50 Q200,50 200,75 Q200,100 160,100" fill="none" stroke="#00b43c" stroke-width="3" />
  <line x1="160" y1="100" x2="205" y2="150" stroke="#00b43c" stroke-width="3" />
  <!-- Triangulated 2D rectangle -->
  <rect x="235" y="50" width="90" height="100" fill="none" stroke="#00b43c" stroke-width="2" />
  <line x1="235" y1="50" x2="325" y2="150" stroke="#00b43c" stroke-width="2" opacity="0.5" />
  <line x1="325" y1="50" x2="235" y2="150" stroke="#00b43c" stroke-width="2" opacity="0.5" />
  <line x1="280" y1="50" x2="280" y2="150" stroke="#00b43c" stroke-width="2" opacity="0.5" />
  <line x1="235" y1="100" x2="325" y2="100" stroke="#00b43c" stroke-width="2" opacity="0.5" />
  <!-- Vertices of the triangulated rectangle -->
  <circle cx="235" cy="50" r="4" fill="#00b43c" />
  <circle cx="325" cy="50" r="4" fill="#00b43c" />
  <circle cx="235" cy="150" r="4" fill="#00b43c" />
  <circle cx="325" cy="150" r="4" fill="#00b43c" />
  <circle cx="280" cy="100" r="4" fill="#00b43c" />
  <circle cx="280" cy="50" r="4" fill="#00b43c" />
  <circle cx="280" cy="150" r="4" fill="#00b43c" />
  <circle cx="235" cy="100" r="4" fill="#00b43c" />
  <circle cx="325" cy="100" r="4" fill="#00b43c" />
</svg>
